<svg width="273" height="241" viewBox="0 0 273 241" fill="none" xmlns="http://www.w3.org/2000/svg">
<path d="M229.132 50.8535C237.041 51.6225 253.584 49.074 256.485 32.7285C259.385 16.3829 267.14 11.8571 270.656 11.6375" stroke="#F3603F" stroke-width="3" stroke-linecap="round"/>
<path d="M218.104 196.603C225.486 198.736 239.758 206.839 237.789 222.193" stroke="#F7B23B" stroke-width="3" stroke-linecap="round" stroke-linejoin="round"/>
<path d="M1.57764 174.935C12.9059 179.202 37.3279 182.262 44.3898 160.37M44.3898 160.37C45.4197 154.338 44.39 142.407 32.0319 142.936C29.6778 148.748 28.8538 160.37 44.3898 160.37ZM44.3898 160.37C49.5391 161.326 61.5148 160.414 68.2235 149.115" stroke="#6E89FA" stroke-width="3" stroke-linecap="round" stroke-linejoin="round"/>
<circle cx="181.348" cy="233.423" r="7.57962" fill="#637BFE"/>
<circle cx="253.002" cy="113.396" r="7.07962" stroke="#C05EFD"/>
<circle cx="132.684" cy="8.99576" r="8.30033" fill="#53B175"/>
<circle cx="156.25" cy="23.0056" r="4.38348" fill="#F3603F"/>
<circle cx="59.6365" cy="87.3808" r="7.18199" stroke="#F7B23B"/>
<circle cx="77.2814" cy="208.512" r="7.94695" stroke="#53B175"/>
<circle cx="4.03543" cy="4.03543" r="4.03543" transform="matrix(-1 0 0 1 161.816 220.695)" fill="#53B175"/>
</svg>
