<svg width="17" height="17" viewBox="0 0 17 17" fill="none" xmlns="http://www.w3.org/2000/svg">
<path d="M15.5707 14.48L15.5698 14.4791L10.6974 9.78427L10.6972 9.78405L9.59293 8.73398L15.5698 2.98934C15.6947 2.86924 15.7964 2.73549 15.8604 2.58779C15.9235 2.44242 15.9618 2.28384 15.9618 2.12411C15.9618 1.95633 15.9369 1.79633 15.8597 1.64715C15.7973 1.50365 15.7092 1.3579 15.5941 1.24721L15.5941 1.24716L15.5921 1.24544C15.4683 1.13831 15.3299 1.04112 15.177 0.979914C15.0236 0.918484 14.8468 0.89458 14.6846 0.89458C14.5192 0.89458 14.3553 0.931255 14.1934 0.99111L14.1933 0.991094L14.1921 0.991592C14.0393 1.0528 13.9003 1.15018 13.7872 1.25889L13.8219 1.29494L13.7872 1.25889L6.91 7.86895C6.79532 7.97918 6.70668 8.11335 6.64361 8.25882L6.6436 8.25881L6.64307 8.26013C6.58066 8.41609 6.54229 8.57432 6.54229 8.73417C6.54229 8.8939 6.5806 9.05248 6.64361 9.19785C6.70668 9.34332 6.79532 9.47749 6.91 9.58772L13.7872 16.1978L13.7872 16.1978L13.7882 16.1987C14.0293 16.4182 14.3455 16.5271 14.6724 16.5271C15.0016 16.5271 15.3177 16.3933 15.5454 16.1744C15.7854 15.9438 15.9129 15.651 15.9132 15.3336C15.9256 15.0153 15.7981 14.7106 15.5707 14.48Z" fill="#181725" stroke="#181725" stroke-width="0.1"/>
<path d="M0.541227 2.94167L0.542144 2.94258L5.41452 7.63736L5.41476 7.63759L6.51901 8.68765L0.542188 14.4323C0.417231 14.5524 0.315529 14.6861 0.251498 14.8338C0.188481 14.9792 0.150169 15.1378 0.150169 15.2975C0.150169 15.4653 0.175005 15.6253 0.252198 15.7745C0.314592 15.918 0.402718 16.0637 0.517887 16.1744L0.517839 16.1745L0.519824 16.1762C0.64367 16.2833 0.782084 16.3805 0.934915 16.4417C1.08831 16.5031 1.26514 16.5271 1.42738 16.5271C1.59274 16.5271 1.75667 16.4904 1.91859 16.4305L1.91859 16.4305L1.91984 16.43C2.07266 16.3688 2.21162 16.2714 2.32471 16.1627L2.29007 16.1267L2.32471 16.1627L9.20194 9.55268C9.31662 9.44245 9.40526 9.30828 9.46832 9.16281L9.46834 9.16282L9.46887 9.1615C9.53128 9.00554 9.56965 8.84731 9.56965 8.68746C9.56965 8.52773 9.53134 8.36915 9.46832 8.22379C9.40526 8.07831 9.31662 7.94414 9.20194 7.83391L2.32472 1.22385L2.32473 1.22384L2.32373 1.22293C2.08263 1.00339 1.76643 0.894577 1.43953 0.894577C1.11031 0.894577 0.79423 1.02831 0.566491 1.24721C0.326537 1.47784 0.199038 1.77059 0.198772 2.08808C0.18633 2.40631 0.313874 2.71101 0.541227 2.94167Z" fill="#181725" stroke="#181725" stroke-width="0.1"/>
</svg>
