<svg width="21" height="14" viewBox="0 0 21 14" fill="none" xmlns="http://www.w3.org/2000/svg">
<path d="M10.4982 0C7.5526 0 5.19395 1.15 3.47691 2.51875C1.77081 3.875 0.629763 5.5 0.0902265 6.61562C-0.0300755 6.8625 -0.0300755 7.1375 0.0902265 7.38437C0.629763 8.5 1.77081 10.125 3.47691 11.4812C5.19395 12.85 7.5526 14 10.4982 14C13.4438 14 15.8024 12.85 17.5194 11.4812C19.2255 10.1219 20.3666 8.5 20.9098 7.38437C21.0301 7.1375 21.0301 6.8625 20.9098 6.61562C20.3666 5.5 19.2255 3.875 17.5194 2.51875C15.8024 1.15 13.4438 0 10.4982 0ZM5.24863 7C5.24863 5.80653 5.80171 4.66193 6.78619 3.81802C7.77067 2.97411 9.10591 2.5 10.4982 2.5C11.8904 2.5 13.2257 2.97411 14.2102 3.81802C15.1946 4.66193 15.7477 5.80653 15.7477 7C15.7477 8.19347 15.1946 9.33807 14.2102 10.182C13.2257 11.0259 11.8904 11.5 10.4982 11.5C9.10591 11.5 7.77067 11.0259 6.78619 10.182C5.80171 9.33807 5.24863 8.19347 5.24863 7ZM10.4982 5C10.4982 6.10312 9.45191 7 8.16505 7C7.90622 7 7.65832 6.9625 7.42501 6.89687C7.2245 6.84062 6.99119 6.94688 6.99848 7.12813C7.00942 7.34375 7.04587 7.55937 7.11514 7.775C7.61457 9.375 9.53576 10.325 11.4023 9.89688C13.2688 9.46875 14.377 7.82188 13.8776 6.22188C13.4729 4.925 12.135 4.05313 10.6476 4C10.4362 3.99375 10.3123 4.19062 10.3779 4.36562C10.4544 4.56562 10.4982 4.77813 10.4982 5Z" fill="#7C7C7C"/>
</svg>
