<svg width="23" height="20" viewBox="0 0 23 20" fill="none" xmlns="http://www.w3.org/2000/svg">
<path d="M2.13828 11.7963L10.2557 19.5021C10.5926 19.8219 11.0373 20 11.5 20C11.9627 20 12.4074 19.8219 12.7443 19.5021L20.8617 11.7963C22.2273 10.5036 23 8.69017 23 6.79454V6.52961C23 3.33673 20.7314 0.614326 17.6363 0.0890309C15.5879 -0.258121 13.5035 0.422479 12.0391 1.91158L11.5 2.45971L10.9609 1.91158C9.49648 0.422479 7.41211 -0.258121 5.36367 0.0890309C2.26855 0.614326 0 3.33673 0 6.52961V6.79454C0 8.69017 0.772656 10.5036 2.13828 11.7963Z" fill="#53B175"/>
</svg>
