<svg width="24" height="20" viewBox="0 0 24 20" fill="none" xmlns="http://www.w3.org/2000/svg">
<path d="M3.96718 8.84343L11.7913 16.6675L19.6154 8.84343C20.3071 8.15168 20.6957 7.21347 20.6957 6.23519C20.6957 5.25691 20.3071 4.3187 19.6154 3.62696C19.2729 3.28444 18.8662 3.01274 18.4187 2.82737C17.9712 2.642 17.4915 2.54659 17.0071 2.54659C16.0289 2.54659 15.0906 2.93521 14.3989 3.62696L11.7913 6.23458L9.18365 3.62818C8.49014 2.94572 7.55505 2.56494 6.58207 2.56878C5.60908 2.57263 4.67703 2.96079 3.98894 3.64872C3.30085 4.33665 2.91247 5.26861 2.90839 6.2416C2.90431 7.21458 3.28487 8.14976 3.96718 8.84343ZM10.9221 1.88731L11.7913 2.75652L12.6605 1.88731C13.2304 1.31239 13.9082 0.855699 14.6551 0.543454C15.402 0.231209 16.2032 0.0695598 17.0127 0.0677872C17.8222 0.0660145 18.6241 0.224153 19.3724 0.533125C20.1206 0.842096 20.8005 1.29581 21.3729 1.86823C21.9453 2.44065 22.399 3.12049 22.708 3.86873C23.017 4.61697 23.1751 5.41887 23.1733 6.22839C23.1715 7.03791 23.0099 7.8391 22.6976 8.58598C22.3854 9.33286 21.9287 10.0107 21.3538 10.5806L12.6617 19.2739C12.5475 19.3882 12.4119 19.4789 12.2627 19.5408C12.1134 19.6027 11.9535 19.6345 11.7919 19.6345C11.6303 19.6345 11.4703 19.6027 11.3211 19.5408C11.1718 19.4789 11.0363 19.3882 10.9221 19.2739L2.22876 10.5818C1.64602 10.0138 1.18188 9.33565 0.863268 8.5868C0.544651 7.83795 0.377899 7.03329 0.372685 6.2195C0.367471 5.4057 0.523898 4.59897 0.832893 3.84611C1.14189 3.09324 1.5973 2.40922 2.17271 1.83373C2.74812 1.25823 3.43208 0.802726 4.1849 0.493624C4.93773 0.184522 5.74443 0.0279806 6.55823 0.0330797C7.37203 0.0381787 8.17671 0.204817 8.9256 0.523328C9.67449 0.841839 10.3527 1.30588 10.9208 1.88854L10.9221 1.88731Z" fill="#181725"/>
</svg>
