<svg width="25" height="25" viewBox="0 0 25 25" fill="none" xmlns="http://www.w3.org/2000/svg">
<path d="M9.98804 9.58781C10.518 10.0628 11.22 10.3518 11.988 10.3518H13.988C14.7262 10.3528 15.4386 10.0807 15.988 9.58781H9.98804ZM9.98804 9.58781C9.43858 10.0807 8.72617 10.3528 7.98804 10.3518L9.98804 9.58781ZM9.03804 4.35181V4.30181H8.98804H5.98804C5.70956 4.30181 5.44249 4.41243 5.24558 4.60934C5.04866 4.80626 4.93804 5.07333 4.93804 5.35181V7.35181C4.93804 7.63028 5.04866 7.89736 5.24558 8.09427C5.44249 8.29118 5.70956 8.40181 5.98804 8.40181H7.98804C8.26652 8.40181 8.53359 8.29118 8.7305 8.09427C8.92741 7.89736 9.03804 7.63028 9.03804 7.35181V4.35181ZM5.99804 10.3018H5.94804V10.3518V20.3168V20.3668H5.99804H7.98804H8.03804V20.3168V15.3518C8.03804 14.8346 8.24349 14.3386 8.60918 13.9729C8.97488 13.6073 9.47087 13.4018 9.98804 13.4018H11.988C12.5052 13.4018 13.0012 13.6073 13.3669 13.9729C13.7326 14.3386 13.938 14.8346 13.938 15.3518V20.3168V20.3668H13.988H20.001H20.051V20.3168V10.3518V10.3018H20.001H17.988C17.2328 10.3018 16.5426 10.0177 16.0214 9.55057L15.988 9.52065L15.9547 9.55059C15.4144 10.0352 14.7139 10.3028 13.9881 10.3018H13.988H11.988C11.2328 10.3018 10.5426 10.0177 10.0214 9.55057L9.98803 9.52065L9.95465 9.55059C9.41438 10.0352 8.71389 10.3028 7.98811 10.3018H7.98804H5.99804ZM3.99621 9.52893C3.69977 9.25816 3.46174 8.92947 3.29694 8.56299C3.12571 8.18222 3.03746 7.76938 3.03804 7.35188V7.35181V5.35181C3.03804 4.56942 3.34884 3.81907 3.90207 3.26584C4.45531 2.71261 5.20565 2.40181 5.98804 2.40181H19.988C20.7704 2.40181 21.5208 2.71261 22.074 3.26584C22.6272 3.81907 22.938 4.56942 22.938 5.35181V7.35181C22.938 8.21914 22.5644 8.99984 21.9675 9.53972L21.951 9.55461V9.57681V20.3168C21.951 20.834 21.7456 21.33 21.3799 21.6957C21.0142 22.0614 20.5182 22.2668 20.001 22.2668H12.361V22.2659L12.3517 22.2677C12.2318 22.2904 12.1101 22.3018 11.988 22.3018H9.98804C9.86601 22.3018 9.74424 22.2904 9.62433 22.2677L9.6245 22.2668H9.61504H5.99904C5.48187 22.2668 4.98588 22.0614 4.62018 21.6957C4.25449 21.33 4.04904 20.834 4.04904 20.3168V9.59681V9.47611L3.99621 9.52893ZM12.038 15.3518V15.3018H11.988H9.98804H9.93804V15.3518V20.3168V20.3668H9.98804H11.988V20.3178H12.038V20.3168V20.2668V15.3518ZM15.038 4.35181V4.30181H14.988H10.988H10.938V4.35181V7.35181C10.938 7.63028 11.0487 7.89736 11.2456 8.09427C11.4425 8.29118 11.7096 8.40181 11.988 8.40181H13.988C14.2665 8.40181 14.5336 8.29118 14.7305 8.09427C14.9274 7.89736 15.038 7.63028 15.038 7.35181V4.35181ZM16.988 4.30181H16.938V4.35181V7.35181C16.938 7.63028 17.0487 7.89736 17.2456 8.09427C17.4425 8.29118 17.7096 8.40181 17.988 8.40181H19.988C20.2665 8.40181 20.5336 8.29118 20.7305 8.09427C20.9274 7.89736 21.038 7.63028 21.038 7.35181V5.35181C21.038 5.07333 20.9274 4.80626 20.7305 4.60934C20.5336 4.41243 20.2665 4.30181 19.988 4.30181H16.988ZM16.988 13.4018H17.988C18.24 13.4018 18.4816 13.5019 18.6598 13.6801C18.838 13.8582 18.938 14.0999 18.938 14.3518V17.3518C18.938 17.6038 18.838 17.8454 18.6598 18.0236C18.4816 18.2017 18.24 18.3018 17.988 18.3018H16.988C16.7361 18.3018 16.4944 18.2017 16.3163 18.0236C16.1381 17.8454 16.038 17.6038 16.038 17.3518V14.3518C16.038 14.0999 16.1381 13.8582 16.3163 13.6801C16.4944 13.5019 16.7361 13.4018 16.988 13.4018Z" fill="#181725" stroke="white" stroke-width="0.1"/>
</svg>
