<svg width="18" height="18" viewBox="0 0 18 18" fill="none" xmlns="http://www.w3.org/2000/svg">
<path d="M17.8402 8.7093C17.8402 9.08513 17.6961 9.44844 17.4266 9.71152C17.1635 9.98086 16.8 10.1312 16.4241 10.1312H10.7595V15.7937C10.7595 16.1695 10.6091 16.5328 10.3397 16.7959C10.0765 17.059 9.71931 17.2093 9.34334 17.2093C8.96737 17.2093 8.60394 17.059 8.34076 16.7959C8.07132 16.5328 7.92093 16.1695 7.92093 15.7937V10.1312H2.25635C1.88039 10.1312 1.51695 9.98086 1.25377 9.71152C0.990597 9.44844 0.84021 9.08513 0.84021 8.7093C0.84021 8.33348 0.990597 7.97644 1.25377 7.70709C1.51695 7.44401 1.88039 7.29368 2.25635 7.29368H7.92093V1.63119C7.92093 1.25536 8.07132 0.892061 8.34076 0.628981C8.60394 0.359636 8.96737 0.209305 9.34334 0.209305C9.71931 0.209305 10.0765 0.359636 10.3397 0.628981C10.6091 0.892061 10.7595 1.25536 10.7595 1.63119V7.29368H16.4241C16.8 7.29368 17.1635 7.44401 17.4266 7.70709C17.6961 7.97644 17.8402 8.33348 17.8402 8.7093Z" fill="white"/>
</svg>
